<svg version="1.1" id="Layer_1" xmlns="http://www.w3.org/2000/svg" xmlns:xlink="http://www.w3.org/1999/xlink" x="0px" y="0px"
	 width="100%" viewBox="0 0 504 576" enable-background="new 0 0 504 576" xml:space="preserve">
<path fill="#000000" opacity="1.000000" stroke="none" 
	d="
M273.000000,577.000000 
	C182.020950,577.000000 91.541893,577.000000 1.031419,577.000000 
	C1.031419,385.065399 1.031419,193.130768 1.031419,1.098075 
	C168.895676,1.098075 336.791443,1.098075 504.843597,1.098075 
	C504.843597,192.999893 504.843597,384.999939 504.843597,577.000000 
	C427.797485,577.000000 350.648743,577.000000 273.000000,577.000000 
M79.000122,316.500000 
	C79.000130,340.995911 79.097229,365.492584 78.908592,389.987061 
	C78.875542,394.278717 80.415230,396.323669 84.218262,398.191315 
	C92.861328,402.435883 101.126862,407.442108 109.633797,411.973633 
	C114.874458,414.765259 120.277153,417.252625 126.197723,420.167358 
	C126.197723,386.016602 126.197723,352.508881 126.197723,318.027710 
	C135.097443,334.849487 143.596298,350.678009 151.876389,366.620148 
	C163.876434,389.724579 175.605988,412.970001 187.689468,436.030304 
	C191.845474,443.961731 195.771774,452.274109 203.828522,457.280182 
	C215.594238,464.590881 227.410721,471.820343 239.240540,479.027039 
	C242.867035,481.236237 246.608231,483.257202 250.631638,485.555603 
	C250.849106,483.996521 250.977524,483.505371 250.977631,483.014221 
	C250.990799,416.858459 250.977631,350.702667 251.061584,284.547028 
	C251.064911,281.926300 249.955124,280.948456 247.823334,279.901764 
	C232.382675,272.320557 217.016800,264.587097 201.618973,256.918488 
	C200.550949,256.386566 199.416138,255.988739 197.755890,255.296555 
	C197.755890,292.306793 197.755890,328.643005 197.755890,364.979248 
	C191.196884,352.417419 185.512253,339.631012 179.553452,326.973663 
	C168.155518,302.762787 156.605194,278.623657 145.110687,254.458282 
	C140.402115,244.559265 135.335434,234.811203 131.108795,224.711105 
	C129.209351,220.172119 126.089157,217.635513 122.144043,215.632248 
	C108.704399,208.807861 95.216499,202.078384 81.730103,195.346558 
	C80.968437,194.966385 80.055214,194.889801 79.000122,194.616989 
	C79.000122,235.186371 79.000122,275.343170 79.000122,316.500000 
M330.625580,460.067108 
	C339.075745,455.896942 347.525879,451.726746 355.239594,447.919983 
	C355.239594,418.258759 355.239594,389.269257 355.239594,359.393799 
	C328.505768,372.755524 302.756775,385.625000 277.373260,398.311798 
	C277.373260,427.795685 277.373260,456.811859 277.373260,486.774506 
	C295.364075,477.792328 312.682007,469.146057 330.625580,460.067108 
M277.000336,362.266632 
	C277.000336,364.318390 277.000336,366.370178 277.000336,368.794617 
	C282.215576,366.414520 286.852631,364.452332 291.354248,362.217407 
	C311.405121,352.262787 331.375488,342.144714 351.490173,332.321686 
	C354.365662,330.917480 355.080444,329.368927 355.067261,326.386414 
	C354.950867,300.065155 355.003387,273.743164 354.989777,247.421371 
	C354.989075,246.017822 354.843353,244.614334 354.752472,242.983826 
	C353.850281,243.261307 353.377563,243.338196 352.968384,243.542343 
	C328.599335,255.699493 304.266113,267.929291 279.827820,279.945496 
	C277.141724,281.266235 276.969788,282.954376 276.973846,285.354095 
	C277.016724,310.676270 277.000336,335.998505 277.000336,362.266632 
M441.613708,316.069275 
	C422.789703,325.517120 404.004181,335.043335 385.102814,344.333801 
	C382.040009,345.839203 380.885986,347.464691 380.908630,350.959747 
	C381.077087,376.951691 380.999634,402.945190 380.999359,428.938202 
	C380.999359,430.545471 380.999359,432.152771 380.999359,434.208740 
	C382.489471,433.775238 383.447601,433.642914 384.269775,433.235901 
	C404.752869,423.094879 425.247162,412.975220 445.630737,402.637390 
	C446.878693,402.004456 447.865570,399.617249 447.896545,398.025299 
	C448.097534,387.698669 447.999756,377.366211 447.999756,367.035675 
	C447.999786,349.251770 447.999756,331.467896 447.999756,313.122559 
	C445.819336,314.210144 444.090546,315.072449 441.613708,316.069275 
M381.000275,238.596252 
	C381.000275,264.644531 381.000275,290.692780 381.000275,317.387085 
	C382.297791,316.724823 382.840118,316.446320 383.383942,316.170715 
	C403.751709,305.847565 424.074890,295.434479 444.538025,285.303955 
	C447.439575,283.867493 448.074585,282.281281 448.062378,279.339417 
	C447.954437,253.362106 448.003326,227.384140 447.989563,201.406372 
	C447.988831,200.005829 447.842041,198.605347 447.730530,196.624283 
	C427.352264,206.833374 407.671173,217.022308 387.654510,226.502670 
	C382.272583,229.051682 380.020050,231.998062 381.000275,238.596252 
M228.584045,206.072357 
	C217.318756,211.963150 206.053452,217.853943 194.176437,224.064621 
	C216.702591,235.350052 238.234558,246.252609 259.929443,256.820679 
	C262.004242,257.831360 265.474274,257.553314 267.653168,256.518585 
	C281.658508,249.867584 295.521515,242.911957 309.355713,235.907166 
	C318.004700,231.527832 326.521484,226.887344 335.453156,222.176529 
	C334.619995,221.538345 334.302277,221.208603 333.916626,221.011917 
	C312.401672,210.037827 290.915314,199.006058 269.299103,188.234970 
	C267.474091,187.325607 264.427277,187.435150 262.543579,188.327896 
	C254.899063,191.950943 247.472122,196.036499 239.995911,200.009796 
	C236.403473,201.919006 232.880035,203.958038 228.584045,206.072357 
M203.039230,189.481003 
	C214.097153,183.794952 225.155075,178.108902 236.981812,172.027512 
	C214.647476,160.680099 193.317017,149.813934 171.929001,139.062241 
	C170.873428,138.531601 169.089462,138.541946 168.025620,139.069122 
	C144.391266,150.780823 120.810593,162.600876 97.187431,174.416504 
	C97.498108,174.824387 97.642227,175.201233 97.909081,175.337234 
	C119.528305,186.355255 141.137283,197.394073 162.834518,208.256592 
	C164.134201,208.907257 166.401749,208.645996 167.784683,207.948334 
	C179.413193,202.081741 190.940262,196.014084 203.039230,189.481003 
M396.623596,157.934021 
	C385.107971,152.138077 373.535736,146.450470 362.113403,140.476151 
	C358.939423,138.816040 356.561035,139.146576 353.492859,140.797577 
	C335.283783,150.595993 316.942749,160.149063 298.654114,169.799896 
	C297.785034,170.258514 296.992554,170.862350 296.112518,171.432144 
	C296.629547,172.035522 296.795715,172.387405 297.069916,172.526947 
	C319.001953,183.686707 340.916412,194.881958 362.938446,205.861465 
	C364.464813,206.622467 367.089996,206.368637 368.708191,205.575180 
	C388.045898,196.093338 407.292542,186.425568 426.549042,176.778656 
	C427.473389,176.315613 428.268066,175.593857 429.802734,174.514664 
	C418.554779,168.810730 407.963135,163.439590 396.623596,157.934021 
M225.624741,110.068237 
	C217.081497,114.419502 208.538254,118.770767 199.886887,123.177101 
	C200.527939,123.926811 200.775650,124.457191 201.185822,124.661697 
	C222.201370,135.139786 243.208023,145.636642 264.309845,155.938507 
	C265.713501,156.623779 268.134430,156.353134 269.600952,155.595551 
	C278.006653,151.253281 286.238678,146.576614 294.583374,142.113892 
	C305.721191,136.157379 316.908203,130.292816 328.880219,123.962479 
	C306.572418,112.797165 285.041504,102.020691 263.452942,91.215363 
	C251.137100,97.432533 238.754868,103.683212 225.624741,110.068237 
z"/>
<path fill="#4D77CF" opacity="1.000000" stroke="none" 
	d="
M79.000122,316.000000 
	C79.000122,275.343170 79.000122,235.186371 79.000122,194.616989 
	C80.055214,194.889801 80.968437,194.966385 81.730103,195.346558 
	C95.216499,202.078384 108.704399,208.807861 122.144043,215.632248 
	C126.089157,217.635513 129.209351,220.172119 131.108795,224.711105 
	C135.335434,234.811203 140.402115,244.559265 145.110687,254.458282 
	C156.605194,278.623657 168.155518,302.762787 179.553452,326.973663 
	C185.512253,339.631012 191.196884,352.417419 197.755890,364.979248 
	C197.755890,328.643005 197.755890,292.306793 197.755890,255.296555 
	C199.416138,255.988739 200.550949,256.386566 201.618973,256.918488 
	C217.016800,264.587097 232.382675,272.320557 247.823334,279.901764 
	C249.955124,280.948456 251.064911,281.926300 251.061584,284.547028 
	C250.977631,350.702667 250.990799,416.858459 250.977631,483.014221 
	C250.977524,483.505371 250.849106,483.996521 250.631638,485.555603 
	C246.608231,483.257202 242.867035,481.236237 239.240540,479.027039 
	C227.410721,471.820343 215.594238,464.590881 203.828522,457.280182 
	C195.771774,452.274109 191.845474,443.961731 187.689468,436.030304 
	C175.605988,412.970001 163.876434,389.724579 151.876389,366.620148 
	C143.596298,350.678009 135.097443,334.849487 126.197723,318.027710 
	C126.197723,352.508881 126.197723,386.016602 126.197723,420.167358 
	C120.277153,417.252625 114.874458,414.765259 109.633797,411.973633 
	C101.126862,407.442108 92.861328,402.435883 84.218262,398.191315 
	C80.415230,396.323669 78.875542,394.278717 78.908592,389.987061 
	C79.097229,365.492584 79.000130,340.995911 79.000122,316.000000 
z"/>
<path fill="#4DABCF" opacity="1.000000" stroke="none" 
	d="
M330.312744,460.283447 
	C312.682007,469.146057 295.364075,477.792328 277.373260,486.774506 
	C277.373260,456.811859 277.373260,427.795685 277.373260,398.311798 
	C302.756775,385.625000 328.505768,372.755524 355.239594,359.393799 
	C355.239594,389.269257 355.239594,418.258759 355.239594,447.919983 
	C347.525879,451.726746 339.075745,455.896942 330.312744,460.283447 
z"/>
<path fill="#4DABCF" opacity="1.000000" stroke="none" 
	d="
M277.000305,361.793701 
	C277.000336,335.998505 277.016724,310.676270 276.973846,285.354095 
	C276.969788,282.954376 277.141724,281.266235 279.827820,279.945496 
	C304.266113,267.929291 328.599335,255.699493 352.968384,243.542343 
	C353.377563,243.338196 353.850281,243.261307 354.752472,242.983826 
	C354.843353,244.614334 354.989075,246.017822 354.989777,247.421371 
	C355.003387,273.743164 354.950867,300.065155 355.067261,326.386414 
	C355.080444,329.368927 354.365662,330.917480 351.490173,332.321686 
	C331.375488,342.144714 311.405121,352.262787 291.354248,362.217407 
	C286.852631,364.452332 282.215576,366.414520 277.000336,368.794617 
	C277.000336,366.370178 277.000336,364.318390 277.000305,361.793701 
z"/>
<path fill="#4DABCF" opacity="1.000000" stroke="none" 
	d="
M441.987732,316.002014 
	C444.090546,315.072449 445.819336,314.210144 447.999756,313.122559 
	C447.999756,331.467896 447.999786,349.251770 447.999756,367.035675 
	C447.999756,377.366211 448.097534,387.698669 447.896545,398.025299 
	C447.865570,399.617249 446.878693,402.004456 445.630737,402.637390 
	C425.247162,412.975220 404.752869,423.094879 384.269775,433.235901 
	C383.447601,433.642914 382.489471,433.775238 380.999359,434.208740 
	C380.999359,432.152771 380.999359,430.545471 380.999359,428.938202 
	C380.999634,402.945190 381.077087,376.951691 380.908630,350.959747 
	C380.885986,347.464691 382.040009,345.839203 385.102814,344.333801 
	C404.004181,335.043335 422.789703,325.517120 441.987732,316.002014 
z"/>
<path fill="#4DABCF" opacity="1.000000" stroke="none" 
	d="
M381.000244,238.115082 
	C380.020050,231.998062 382.272583,229.051682 387.654510,226.502670 
	C407.671173,217.022308 427.352264,206.833374 447.730530,196.624283 
	C447.842041,198.605347 447.988831,200.005829 447.989563,201.406372 
	C448.003326,227.384140 447.954437,253.362106 448.062378,279.339417 
	C448.074585,282.281281 447.439575,283.867493 444.538025,285.303955 
	C424.074890,295.434479 403.751709,305.847565 383.383942,316.170715 
	C382.840118,316.446320 382.297791,316.724823 381.000275,317.387085 
	C381.000275,290.692780 381.000275,264.644531 381.000244,238.115082 
z"/>
<path fill="#4DABCF" opacity="1.000000" stroke="none" 
	d="
M228.954697,206.005325 
	C232.880035,203.958038 236.403473,201.919006 239.995911,200.009796 
	C247.472122,196.036499 254.899063,191.950943 262.543579,188.327896 
	C264.427277,187.435150 267.474091,187.325607 269.299103,188.234970 
	C290.915314,199.006058 312.401672,210.037827 333.916626,221.011917 
	C334.302277,221.208603 334.619995,221.538345 335.453156,222.176529 
	C326.521484,226.887344 318.004700,231.527832 309.355713,235.907166 
	C295.521515,242.911957 281.658508,249.867584 267.653168,256.518585 
	C265.474274,257.553314 262.004242,257.831360 259.929443,256.820679 
	C238.234558,246.252609 216.702591,235.350052 194.176437,224.064621 
	C206.053452,217.853943 217.318756,211.963150 228.954697,206.005325 
z"/>
<path fill="#4DABCF" opacity="1.000000" stroke="none" 
	d="
M202.768555,189.743973 
	C190.940262,196.014084 179.413193,202.081741 167.784683,207.948334 
	C166.401749,208.645996 164.134201,208.907257 162.834518,208.256592 
	C141.137283,197.394073 119.528305,186.355255 97.909081,175.337234 
	C97.642227,175.201233 97.498108,174.824387 97.187431,174.416504 
	C120.810593,162.600876 144.391266,150.780823 168.025620,139.069122 
	C169.089462,138.541946 170.873428,138.531601 171.929001,139.062241 
	C193.317017,149.813934 214.647476,160.680099 236.981812,172.027512 
	C225.155075,178.108902 214.097153,183.794952 202.768555,189.743973 
z"/>
<path fill="#4DABCF" opacity="1.000000" stroke="none" 
	d="
M396.997559,158.001251 
	C407.963135,163.439590 418.554779,168.810730 429.802734,174.514664 
	C428.268066,175.593857 427.473389,176.315613 426.549042,176.778656 
	C407.292542,186.425568 388.045898,196.093338 368.708191,205.575180 
	C367.089996,206.368637 364.464813,206.622467 362.938446,205.861465 
	C340.916412,194.881958 319.001953,183.686707 297.069916,172.526947 
	C296.795715,172.387405 296.629547,172.035522 296.112518,171.432144 
	C296.992554,170.862350 297.785034,170.258514 298.654114,169.799896 
	C316.942749,160.149063 335.283783,150.595993 353.492859,140.797577 
	C356.561035,139.146576 358.939423,138.816040 362.113403,140.476151 
	C373.535736,146.450470 385.107971,152.138077 396.997559,158.001251 
z"/>
<path fill="#4DABCF" opacity="1.000000" stroke="none" 
	d="
M225.998688,110.001068 
	C238.754868,103.683212 251.137100,97.432533 263.452942,91.215363 
	C285.041504,102.020691 306.572418,112.797165 328.880219,123.962479 
	C316.908203,130.292816 305.721191,136.157379 294.583374,142.113892 
	C286.238678,146.576614 278.006653,151.253281 269.600952,155.595551 
	C268.134430,156.353134 265.713501,156.623779 264.309845,155.938507 
	C243.208023,145.636642 222.201370,135.139786 201.185822,124.661697 
	C200.775650,124.457191 200.527939,123.926811 199.886887,123.177101 
	C208.538254,118.770767 217.081497,114.419502 225.998688,110.001068 
z"/>
</svg>